<svg width="1432" height="284" viewBox="0 0 1432 284" fill="none" xmlns="http://www.w3.org/2000/svg">
<path fill-rule="evenodd" clip-rule="evenodd" d="M159.492 0L318.841 276H0.143616L159.492 0ZM27.8564 260H291.128L159.492 32L27.8564 260Z" fill="#271D55"/>
<path fill-rule="evenodd" clip-rule="evenodd" d="M530.477 0L607.264 133H672.477C676.895 133 680.477 136.582 680.477 141C680.477 145.418 676.895 149 672.477 149H616.502L689.825 276H371.128L444.451 149H386.477C382.058 149 378.477 145.418 378.477 141C378.477 136.582 382.058 133 386.477 133H453.689L530.477 0ZM462.927 149L398.841 260H662.112L598.027 149H462.927ZM588.789 133H472.164L530.477 32L588.789 133Z" fill="#271D55"/>
<path fill-rule="evenodd" clip-rule="evenodd" d="M901.461 284L978.249 151H1043.46C1047.88 151 1051.46 147.418 1051.46 143C1051.46 138.582 1047.88 135 1043.46 135H987.486L1060.81 8H742.112L815.436 135H757.461C753.043 135 749.461 138.582 749.461 143C749.461 147.418 753.043 151 757.461 151H824.673L901.461 284ZM833.911 135L769.825 24H1033.1L969.011 135H833.911ZM959.773 151H843.149L901.461 252L959.773 151Z" fill="#271D55"/>
<path fill-rule="evenodd" clip-rule="evenodd" d="M1272.45 284L1431.79 8H1113.1L1272.45 284ZM1140.81 24H1404.08L1272.45 252L1140.81 24Z" fill="#271D55"/>
</svg>
