<?xml version="1.0" encoding="UTF-8"?>
<svg id="Capa_1" xmlns="http://www.w3.org/2000/svg" version="1.1" viewBox="0 0 24 24">
  <!-- Generator: Adobe Illustrator 29.4.0, SVG Export Plug-In . SVG Version: 2.1.0 Build 152)  -->
  <path d="M14.01,1.98l9.57,5.02c.55.29.57,1.07.02,1.38l-1.62.93c-.38.22-.86.08-1.08-.29-.22-.38-.08-.86.29-1.08l.37-.21L13.28,3.38c-.77-.4-1.69-.42-2.47-.04l-.09.04L2.47,7.71l2.23,1.19c.24.13.39.37.41.64v.06s0,9.06,0,9.06c0,.23.13.43.33.54h0s.2.11.2.11c2.11,1.06,4.21,1.6,6.28,1.63h.21c2.2,0,4.34-.57,6.42-1.72.19-.11.31-.31.31-.53v-7.77l-4.73,2.51c-1.22.64-2.67.67-3.91.07l-.11-.06-3.89-2.01c-.39-.2-.54-.68-.34-1.06.2-.39.68-.54,1.06-.34l3.89,2.01c.8.42,1.76.41,2.55-.01l5.88-3.12c.53-.28,1.16.1,1.16.7v9.09c0,.8-.43,1.53-1.13,1.91-2.31,1.28-4.71,1.92-7.18,1.92s-4.95-.64-7.42-1.92h-.01s-.07-.04-.07-.04c-.66-.37-1.07-1.06-1.1-1.81v-.09s0-8.58,0-8.58l-3.12-1.67c-.54-.29-.55-1.05-.04-1.36l.05-.03L9.99,1.98c1.26-.66,2.76-.66,4.02,0h0ZM23.21,10.87c.44,0,.79.35.79.79v4.87c0,.44-.35.79-.79.79s-.79-.35-.79-.79v-4.87c0-.44.35-.79.79-.79Z" fill="#0affff"/>
</svg>