<?xml version="1.0" encoding="UTF-8"?>
<svg id="Capa_1" xmlns="http://www.w3.org/2000/svg" version="1.1" viewBox="0 0 24 24">
  <!-- Generator: Adobe Illustrator 29.4.0, SVG Export Plug-In . SVG Version: 2.1.0 Build 152)  -->
  <path d="M13.34,24c-.96,0-1.86-.38-2.54-1.05L2.43,14.55c-.68-.69-1.05-1.59-1.05-2.56s.38-1.87,1.05-2.55L10.83,1.05c.69-.68,1.58-1.05,2.54-1.05h0c.96,0,1.86.38,2.54,1.06l5.66,5.72c.68.69,1.04,1.58,1.04,2.56s-.38,1.87-1.06,2.55l-5.33,5.3-2.67-2.7,5.19-5.17-5.39-5.44L5.24,12l8.1,8.13,2.89-2.91,2.68,2.67-3.02,3.05c-.68.69-1.58,1.06-2.55,1.06Z" fill="#0ae98a"/>
</svg>